<svg class="svg-icon" style="width: 1em;height: 1em;vertical-align: middle;fill: currentColor;overflow: hidden;" viewBox="0 0 1024 1024" version="1.1" xmlns="http://www.w3.org/2000/svg"><path d="M703.146667 452.721778A189.098667 189.098667 0 0 1 821.589333 386.844444 143.246222 143.246222 0 0 0 887.466667 342.357333 147.000889 147.000889 0 0 0 869.717333 136.533333a145.294222 145.294222 0 0 0-238.136889 97.848889 187.392 187.392 0 0 1-124.472888 177.493334L662.186667 542.264889a183.751111 183.751111 0 0 1 40.96-89.543111zM102.4 853.333333h633.514667v68.266667H102.4zM682.439111 787.456l-424.391111-356.579556 70.428444-78.734222 424.391112 356.693334-70.428445 78.620444z" fill="#1DCCA1" /></svg>