<svg xmlns="http://www.w3.org/2000/svg" xmlns:xlink="http://www.w3.org/1999/xlink" width="496" zoomAndPan="magnify" viewBox="0 0 372 108.749999" height="145" preserveAspectRatio="xMidYMid meet" version="1.0"><defs><g/><clipPath id="31eb299052"><path d="M 0.425781 0.578125 L 108.179688 0.578125 L 108.179688 108.332031 L 0.425781 108.332031 Z M 0.425781 0.578125 " clip-rule="nonzero"/></clipPath></defs><g clip-path="url(#31eb299052)"><path fill="#111216" d="M 108.179688 54.457031 C 108.175781 53.789062 108.082031 53.132812 107.898438 52.492188 C 107.714844 51.851562 107.453125 51.246094 107.105469 50.675781 C 106.757812 50.105469 106.339844 49.59375 105.851562 49.136719 C 105.367188 48.683594 104.828125 48.300781 104.234375 47.992188 L 95.664062 43.4375 L 104.261719 38.90625 C 104.847656 38.589844 105.378906 38.207031 105.863281 37.746094 C 106.34375 37.289062 106.753906 36.773438 107.097656 36.203125 C 107.4375 35.632812 107.699219 35.027344 107.875 34.386719 C 108.050781 33.746094 108.140625 33.09375 108.140625 32.429688 C 108.140625 31.761719 108.050781 31.109375 107.875 30.46875 C 107.699219 29.828125 107.4375 29.222656 107.097656 28.652344 C 106.753906 28.082031 106.34375 27.566406 105.863281 27.109375 C 105.378906 26.652344 104.847656 26.265625 104.261719 25.949219 L 57.730469 1.460938 C 57.210938 1.175781 56.660156 0.957031 56.085938 0.808594 C 55.507812 0.660156 54.921875 0.585938 54.328125 0.585938 C 53.730469 0.585938 53.144531 0.660156 52.570312 0.808594 C 51.992188 0.957031 51.445312 1.175781 50.921875 1.460938 L 4.394531 25.949219 C 3.808594 26.265625 3.273438 26.652344 2.792969 27.109375 C 2.3125 27.566406 1.898438 28.082031 1.558594 28.652344 C 1.214844 29.222656 0.957031 29.828125 0.78125 30.46875 C 0.601562 31.109375 0.515625 31.761719 0.515625 32.429688 C 0.515625 33.09375 0.601562 33.746094 0.78125 34.386719 C 0.957031 35.027344 1.214844 35.632812 1.558594 36.203125 C 1.898438 36.773438 2.3125 37.289062 2.792969 37.746094 C 3.273438 38.207031 3.808594 38.589844 4.394531 38.90625 L 12.941406 43.4375 L 4.34375 47.964844 C 3.757812 48.28125 3.226562 48.667969 2.742188 49.125 C 2.261719 49.582031 1.851562 50.097656 1.507812 50.667969 C 1.167969 51.238281 0.90625 51.84375 0.730469 52.484375 C 0.554688 53.125 0.464844 53.777344 0.464844 54.445312 C 0.464844 55.109375 0.554688 55.761719 0.730469 56.402344 C 0.90625 57.042969 1.167969 57.648438 1.507812 58.21875 C 1.851562 58.789062 2.261719 59.304688 2.742188 59.761719 C 3.226562 60.222656 3.757812 60.605469 4.34375 60.921875 L 12.941406 65.476562 L 4.34375 70.007812 C 3.757812 70.320312 3.226562 70.707031 2.742188 71.164062 C 2.261719 71.625 1.851562 72.136719 1.507812 72.707031 C 1.167969 73.277344 0.90625 73.882812 0.730469 74.527344 C 0.554688 75.167969 0.464844 75.820312 0.464844 76.484375 C 0.464844 77.148438 0.554688 77.800781 0.730469 78.441406 C 0.90625 79.082031 1.167969 79.6875 1.507812 80.257812 C 1.851562 80.828125 2.261719 81.34375 2.742188 81.804688 C 3.226562 82.261719 3.757812 82.648438 4.34375 82.960938 L 50.875 107.449219 C 51.394531 107.738281 51.945312 107.957031 52.519531 108.105469 C 53.097656 108.253906 53.683594 108.328125 54.277344 108.328125 C 54.875 108.328125 55.460938 108.253906 56.035156 108.105469 C 56.613281 107.957031 57.160156 107.738281 57.683594 107.449219 L 104.210938 82.960938 C 104.796875 82.648438 105.332031 82.261719 105.8125 81.804688 C 106.292969 81.34375 106.707031 80.828125 107.046875 80.257812 C 107.390625 79.6875 107.648438 79.082031 107.824219 78.441406 C 108.003906 77.800781 108.089844 77.148438 108.089844 76.484375 C 108.089844 75.820312 108.003906 75.167969 107.824219 74.527344 C 107.648438 73.882812 107.390625 73.277344 107.046875 72.707031 C 106.707031 72.136719 106.292969 71.625 105.8125 71.164062 C 105.332031 70.707031 104.796875 70.320312 104.210938 70.007812 L 95.664062 65.476562 L 104.261719 60.945312 C 104.851562 60.632812 105.390625 60.25 105.875 59.789062 C 106.359375 59.332031 106.777344 58.816406 107.121094 58.246094 C 107.464844 57.671875 107.730469 57.066406 107.910156 56.421875 C 108.089844 55.78125 108.179688 55.125 108.179688 54.457031 Z M 6.621094 34.570312 C 6.234375 34.355469 5.925781 34.054688 5.699219 33.671875 C 5.472656 33.289062 5.359375 32.875 5.359375 32.429688 C 5.359375 31.984375 5.472656 31.566406 5.699219 31.183594 C 5.925781 30.800781 6.234375 30.5 6.621094 30.285156 L 53.152344 5.796875 C 53.5 5.589844 53.875 5.488281 54.277344 5.488281 C 54.683594 5.488281 55.058594 5.589844 55.40625 5.796875 L 101.933594 30.285156 C 102.324219 30.5 102.632812 30.800781 102.859375 31.183594 C 103.085938 31.566406 103.199219 31.984375 103.199219 32.429688 C 103.199219 32.875 103.085938 33.289062 102.859375 33.671875 C 102.632812 34.054688 102.324219 34.355469 101.933594 34.570312 L 55.40625 59.058594 C 55.058594 59.265625 54.683594 59.371094 54.277344 59.371094 C 53.875 59.371094 53.5 59.265625 53.152344 59.058594 Z M 101.984375 74.339844 C 102.371094 74.558594 102.679688 74.855469 102.90625 75.242188 C 103.132812 75.625 103.246094 76.039062 103.246094 76.484375 C 103.246094 76.929688 103.132812 77.34375 102.90625 77.726562 C 102.679688 78.113281 102.371094 78.410156 101.984375 78.625 L 55.453125 103.117188 C 55.105469 103.324219 54.730469 103.425781 54.328125 103.425781 C 53.921875 103.425781 53.546875 103.324219 53.199219 103.117188 L 6.671875 78.625 C 6.28125 78.410156 5.972656 78.113281 5.746094 77.726562 C 5.519531 77.34375 5.40625 76.929688 5.40625 76.484375 C 5.40625 76.039062 5.519531 75.625 5.746094 75.242188 C 5.972656 74.855469 6.28125 74.558594 6.671875 74.339844 L 18.230469 68.269531 L 50.921875 85.410156 C 51.445312 85.699219 51.992188 85.914062 52.570312 86.0625 C 53.144531 86.210938 53.730469 86.285156 54.328125 86.285156 C 54.921875 86.285156 55.507812 86.210938 56.085938 86.0625 C 56.660156 85.914062 57.210938 85.699219 57.730469 85.410156 L 90.425781 68.269531 Z M 101.984375 56.609375 L 55.453125 81.101562 C 55.105469 81.304688 54.730469 81.410156 54.328125 81.410156 C 53.921875 81.410156 53.546875 81.304688 53.199219 81.101562 L 6.671875 56.609375 C 6.28125 56.394531 5.972656 56.097656 5.746094 55.710938 C 5.519531 55.328125 5.40625 54.914062 5.40625 54.46875 C 5.40625 54.023438 5.519531 53.609375 5.746094 53.222656 C 5.972656 52.839844 6.28125 52.542969 6.671875 52.324219 L 18.230469 46.253906 L 50.921875 63.394531 C 51.445312 63.683594 51.992188 63.898438 52.570312 64.046875 C 53.144531 64.195312 53.730469 64.269531 54.328125 64.269531 C 54.921875 64.269531 55.507812 64.195312 56.085938 64.046875 C 56.660156 63.898438 57.210938 63.683594 57.730469 63.394531 L 90.425781 46.253906 L 101.984375 52.324219 C 102.371094 52.542969 102.679688 52.839844 102.90625 53.222656 C 103.132812 53.609375 103.246094 54.023438 103.246094 54.46875 C 103.246094 54.914062 103.132812 55.328125 102.90625 55.710938 C 102.679688 56.097656 102.371094 56.394531 101.984375 56.609375 Z M 101.984375 56.609375 " fill-opacity="1" fill-rule="nonzero"/></g><g fill="#000000" fill-opacity="1"><g transform="translate(120.151372, 46.973203)"><g><path d="M 11.421875 -22.453125 C 12.972656 -22.453125 14.300781 -22.175781 15.40625 -21.625 C 16.507812 -21.070312 17.347656 -20.28125 17.921875 -19.25 C 18.503906 -18.21875 18.796875 -17.007812 18.796875 -15.625 C 18.796875 -14.226562 18.503906 -13.015625 17.921875 -11.984375 C 17.347656 -10.960938 16.507812 -10.171875 15.40625 -9.609375 C 14.300781 -9.054688 12.972656 -8.78125 11.421875 -8.78125 L 6.03125 -8.78125 L 6.03125 0 L 3.390625 0 L 3.390625 -22.453125 Z M 11.34375 -11.046875 C 14.46875 -11.046875 16.03125 -12.570312 16.03125 -15.625 C 16.03125 -18.6875 14.46875 -20.21875 11.34375 -20.21875 L 6.03125 -20.21875 L 6.03125 -11.046875 Z M 11.34375 -11.046875 "/></g></g></g><g fill="#000000" fill-opacity="1"><g transform="translate(140.614648, 46.973203)"><g><path d="M 2.953125 0 L 2.953125 -16.9375 L 5.328125 -16.9375 L 5.328125 -14.28125 L 5.65625 -14.203125 C 6.4375 -16.128906 7.921875 -17.09375 10.109375 -17.09375 C 11.265625 -17.09375 12.128906 -16.882812 12.703125 -16.46875 L 12.0625 -14.34375 L 11.75 -14.28125 C 11.113281 -14.601562 10.414062 -14.765625 9.65625 -14.765625 C 8.3125 -14.765625 7.273438 -14.253906 6.546875 -13.234375 C 5.816406 -12.222656 5.453125 -10.582031 5.453125 -8.3125 L 5.453125 0 Z M 2.953125 0 "/></g></g></g><g fill="#000000" fill-opacity="1"><g transform="translate(153.693947, 46.973203)"><g><path d="M 9.71875 0.328125 C 8.125 0.328125 6.734375 -0.0078125 5.546875 -0.6875 C 4.367188 -1.363281 3.457031 -2.359375 2.8125 -3.671875 C 2.175781 -4.992188 1.859375 -6.59375 1.859375 -8.46875 C 1.859375 -10.332031 2.175781 -11.925781 2.8125 -13.25 C 3.457031 -14.570312 4.367188 -15.570312 5.546875 -16.25 C 6.734375 -16.925781 8.125 -17.265625 9.71875 -17.265625 C 11.320312 -17.265625 12.710938 -16.925781 13.890625 -16.25 C 15.078125 -15.570312 15.988281 -14.570312 16.625 -13.25 C 17.257812 -11.925781 17.578125 -10.332031 17.578125 -8.46875 C 17.578125 -6.59375 17.257812 -4.992188 16.625 -3.671875 C 15.988281 -2.359375 15.078125 -1.363281 13.890625 -0.6875 C 12.710938 -0.0078125 11.320312 0.328125 9.71875 0.328125 Z M 9.71875 -1.921875 C 11.40625 -1.921875 12.695312 -2.453125 13.59375 -3.515625 C 14.488281 -4.578125 14.9375 -6.226562 14.9375 -8.46875 C 14.9375 -10.707031 14.488281 -12.359375 13.59375 -13.421875 C 12.695312 -14.484375 11.40625 -15.015625 9.71875 -15.015625 C 8.03125 -15.015625 6.734375 -14.476562 5.828125 -13.40625 C 4.929688 -12.34375 4.484375 -10.695312 4.484375 -8.46875 C 4.484375 -6.226562 4.929688 -4.578125 5.828125 -3.515625 C 6.734375 -2.453125 8.03125 -1.921875 9.71875 -1.921875 Z M 9.71875 -1.921875 "/></g></g></g><g fill="#000000" fill-opacity="1"><g transform="translate(173.12868, 46.973203)"><g><path d="M 4.203125 -20.21875 C 3.671875 -20.21875 3.238281 -20.378906 2.90625 -20.703125 C 2.570312 -21.035156 2.40625 -21.460938 2.40625 -21.984375 C 2.40625 -22.492188 2.570312 -22.914062 2.90625 -23.25 C 3.238281 -23.582031 3.671875 -23.75 4.203125 -23.75 C 4.734375 -23.75 5.164062 -23.582031 5.5 -23.25 C 5.832031 -22.914062 6 -22.492188 6 -21.984375 C 6 -21.460938 5.832031 -21.035156 5.5 -20.703125 C 5.164062 -20.378906 4.734375 -20.21875 4.203125 -20.21875 Z M 0.828125 7.1875 C 0.296875 7.1875 -0.171875 7.144531 -0.578125 7.0625 C -0.992188 6.988281 -1.390625 6.878906 -1.765625 6.734375 L -1.375 4.8125 L -1.09375 4.71875 C -0.582031 4.90625 -0.0625 5 0.46875 5 C 1.269531 5 1.882812 4.734375 2.3125 4.203125 C 2.738281 3.679688 2.953125 2.929688 2.953125 1.953125 L 2.953125 -16.9375 L 5.453125 -16.9375 L 5.453125 1.859375 C 5.453125 3.554688 5.046875 4.867188 4.234375 5.796875 C 3.429688 6.722656 2.296875 7.1875 0.828125 7.1875 Z M 0.828125 7.1875 "/></g></g></g><g fill="#000000" fill-opacity="1"><g transform="translate(181.525841, 46.973203)"><g><path d="M 16.140625 -7.890625 L 4.5 -7.890625 C 4.570312 -5.835938 5.066406 -4.328125 5.984375 -3.359375 C 6.898438 -2.398438 8.15625 -1.921875 9.75 -1.921875 C 10.957031 -1.921875 11.929688 -2.132812 12.671875 -2.5625 C 13.410156 -2.988281 13.988281 -3.664062 14.40625 -4.59375 L 14.734375 -4.59375 L 16.359375 -3.625 C 15.867188 -2.394531 15.082031 -1.425781 14 -0.71875 C 12.914062 -0.0195312 11.5 0.328125 9.75 0.328125 C 8.113281 0.328125 6.707031 0.00390625 5.53125 -0.640625 C 4.351562 -1.285156 3.445312 -2.265625 2.8125 -3.578125 C 2.175781 -4.890625 1.859375 -6.519531 1.859375 -8.46875 C 1.859375 -10.382812 2.191406 -12.003906 2.859375 -13.328125 C 3.535156 -14.648438 4.453125 -15.632812 5.609375 -16.28125 C 6.773438 -16.9375 8.101562 -17.265625 9.59375 -17.265625 C 11.769531 -17.265625 13.46875 -16.648438 14.6875 -15.421875 C 15.90625 -14.203125 16.519531 -12.390625 16.53125 -9.984375 C 16.53125 -9.035156 16.507812 -8.398438 16.46875 -8.078125 Z M 14.046875 -9.984375 C 14.003906 -11.785156 13.601562 -13.09375 12.84375 -13.90625 C 12.09375 -14.726562 11.007812 -15.140625 9.59375 -15.140625 C 8.113281 -15.140625 6.953125 -14.726562 6.109375 -13.90625 C 5.265625 -13.082031 4.75 -11.773438 4.5625 -9.984375 Z M 14.046875 -9.984375 "/></g></g></g><g fill="#000000" fill-opacity="1"><g transform="translate(199.578959, 46.973203)"><g><path d="M 9.71875 0.328125 C 8.226562 0.328125 6.890625 -0.0078125 5.703125 -0.6875 C 4.515625 -1.375 3.578125 -2.378906 2.890625 -3.703125 C 2.203125 -5.035156 1.859375 -6.625 1.859375 -8.46875 C 1.859375 -10.3125 2.203125 -11.894531 2.890625 -13.21875 C 3.578125 -14.550781 4.515625 -15.554688 5.703125 -16.234375 C 6.890625 -16.921875 8.226562 -17.265625 9.71875 -17.265625 C 11.507812 -17.265625 12.9375 -16.925781 14 -16.25 C 15.0625 -15.570312 15.828125 -14.671875 16.296875 -13.546875 L 14.59375 -12.3125 L 14.28125 -12.3125 C 13.820312 -13.25 13.226562 -13.929688 12.5 -14.359375 C 11.78125 -14.796875 10.851562 -15.015625 9.71875 -15.015625 C 8.675781 -15.015625 7.757812 -14.769531 6.96875 -14.28125 C 6.1875 -13.789062 5.578125 -13.050781 5.140625 -12.0625 C 4.703125 -11.082031 4.484375 -9.882812 4.484375 -8.46875 C 4.484375 -7.050781 4.703125 -5.851562 5.140625 -4.875 C 5.585938 -3.894531 6.203125 -3.15625 6.984375 -2.65625 C 7.765625 -2.164062 8.675781 -1.921875 9.71875 -1.921875 C 10.894531 -1.921875 11.867188 -2.1875 12.640625 -2.71875 C 13.421875 -3.25 14.03125 -4.085938 14.46875 -5.234375 L 14.796875 -5.234375 L 16.4375 -4.265625 C 15.988281 -2.847656 15.195312 -1.726562 14.0625 -0.90625 C 12.9375 -0.0820312 11.488281 0.328125 9.71875 0.328125 Z M 9.71875 0.328125 "/></g></g></g><g fill="#000000" fill-opacity="1"><g transform="translate(217.033382, 46.973203)"><g><path d="M 11.453125 -2.6875 L 12.25 -0.890625 C 11.851562 -0.492188 11.328125 -0.191406 10.671875 0.015625 C 10.023438 0.222656 9.320312 0.328125 8.5625 0.328125 C 5.332031 0.328125 3.71875 -1.3125 3.71875 -4.59375 L 3.71875 -14.890625 L 0.765625 -14.890625 L 0.765625 -16.953125 L 3.71875 -16.953125 L 3.71875 -20.53125 L 6.21875 -20.953125 L 6.21875 -16.953125 L 11.671875 -16.953125 L 11.671875 -14.890625 L 6.21875 -14.890625 L 6.21875 -4.84375 C 6.21875 -2.894531 7.0625 -1.921875 8.75 -1.921875 C 9.675781 -1.921875 10.472656 -2.175781 11.140625 -2.6875 Z M 11.453125 -2.6875 "/></g></g></g><g fill="#000000" fill-opacity="1"><g transform="translate(229.926353, 46.973203)"><g/></g></g><g fill="#000000" fill-opacity="1"><g transform="translate(120.151372, 84.387192)"><g><path d="M 12.40625 0.328125 C 10.4375 0.328125 8.6875 -0.117188 7.15625 -1.015625 C 5.625 -1.921875 4.421875 -3.242188 3.546875 -4.984375 C 2.679688 -6.722656 2.25 -8.804688 2.25 -11.234375 C 2.25 -13.648438 2.679688 -15.726562 3.546875 -17.46875 C 4.421875 -19.207031 5.625 -20.523438 7.15625 -21.421875 C 8.6875 -22.328125 10.4375 -22.78125 12.40625 -22.78125 C 14.507812 -22.78125 16.253906 -22.378906 17.640625 -21.578125 C 19.035156 -20.785156 20.039062 -19.59375 20.65625 -18 L 18.96875 -16.875 L 18.578125 -16.875 C 17.960938 -18.15625 17.164062 -19.0625 16.1875 -19.59375 C 15.207031 -20.132812 13.945312 -20.40625 12.40625 -20.40625 C 11 -20.40625 9.742188 -20.085938 8.640625 -19.453125 C 7.546875 -18.828125 6.675781 -17.832031 6.03125 -16.46875 C 5.382812 -15.101562 5.0625 -13.359375 5.0625 -11.234375 C 5.0625 -9.097656 5.382812 -7.347656 6.03125 -5.984375 C 6.675781 -4.628906 7.546875 -3.632812 8.640625 -3 C 9.742188 -2.375 11 -2.0625 12.40625 -2.0625 C 14.03125 -2.0625 15.359375 -2.425781 16.390625 -3.15625 C 17.429688 -3.882812 18.203125 -5.070312 18.703125 -6.71875 L 19.09375 -6.71875 L 20.859375 -5.84375 C 20.328125 -3.851562 19.335938 -2.328125 17.890625 -1.265625 C 16.453125 -0.203125 14.625 0.328125 12.40625 0.328125 Z M 12.40625 0.328125 "/></g></g></g><g fill="#000000" fill-opacity="1"><g transform="translate(142.165123, 84.387192)"><g><path d="M 9.71875 0.328125 C 8.125 0.328125 6.734375 -0.0078125 5.546875 -0.6875 C 4.367188 -1.363281 3.457031 -2.359375 2.8125 -3.671875 C 2.175781 -4.992188 1.859375 -6.59375 1.859375 -8.46875 C 1.859375 -10.332031 2.175781 -11.925781 2.8125 -13.25 C 3.457031 -14.570312 4.367188 -15.570312 5.546875 -16.25 C 6.734375 -16.925781 8.125 -17.265625 9.71875 -17.265625 C 11.320312 -17.265625 12.710938 -16.925781 13.890625 -16.25 C 15.078125 -15.570312 15.988281 -14.570312 16.625 -13.25 C 17.257812 -11.925781 17.578125 -10.332031 17.578125 -8.46875 C 17.578125 -6.59375 17.257812 -4.992188 16.625 -3.671875 C 15.988281 -2.359375 15.078125 -1.363281 13.890625 -0.6875 C 12.710938 -0.0078125 11.320312 0.328125 9.71875 0.328125 Z M 9.71875 -1.921875 C 11.40625 -1.921875 12.695312 -2.453125 13.59375 -3.515625 C 14.488281 -4.578125 14.9375 -6.226562 14.9375 -8.46875 C 14.9375 -10.707031 14.488281 -12.359375 13.59375 -13.421875 C 12.695312 -14.484375 11.40625 -15.015625 9.71875 -15.015625 C 8.03125 -15.015625 6.734375 -14.476562 5.828125 -13.40625 C 4.929688 -12.34375 4.484375 -10.695312 4.484375 -8.46875 C 4.484375 -6.226562 4.929688 -4.578125 5.828125 -3.515625 C 6.734375 -2.453125 8.03125 -1.921875 9.71875 -1.921875 Z M 9.71875 -1.921875 "/></g></g></g><g fill="#000000" fill-opacity="1"><g transform="translate(161.599856, 84.387192)"><g><path d="M 7.71875 0.328125 C 6.65625 0.328125 5.671875 0.1875 4.765625 -0.09375 C 3.859375 -0.375 3.09375 -0.757812 2.46875 -1.25 C 1.84375 -1.75 1.40625 -2.304688 1.15625 -2.921875 L 2.625 -4.453125 L 2.953125 -4.453125 C 3.503906 -3.609375 4.164062 -2.972656 4.9375 -2.546875 C 5.71875 -2.128906 6.644531 -1.921875 7.71875 -1.921875 C 8.96875 -1.921875 9.914062 -2.160156 10.5625 -2.640625 C 11.21875 -3.128906 11.546875 -3.8125 11.546875 -4.6875 C 11.546875 -5.351562 11.347656 -5.898438 10.953125 -6.328125 C 10.554688 -6.765625 9.921875 -7.09375 9.046875 -7.3125 L 6.1875 -8.015625 C 4.664062 -8.378906 3.550781 -8.960938 2.84375 -9.765625 C 2.144531 -10.566406 1.796875 -11.554688 1.796875 -12.734375 C 1.796875 -13.648438 2.03125 -14.445312 2.5 -15.125 C 2.96875 -15.8125 3.644531 -16.335938 4.53125 -16.703125 C 5.414062 -17.078125 6.46875 -17.265625 7.6875 -17.265625 C 9.25 -17.265625 10.476562 -17.046875 11.375 -16.609375 C 12.269531 -16.171875 12.96875 -15.566406 13.46875 -14.796875 L 12.0625 -13.40625 L 11.75 -13.40625 C 11.207031 -14.03125 10.613281 -14.476562 9.96875 -14.75 C 9.332031 -15.03125 8.570312 -15.171875 7.6875 -15.171875 C 6.570312 -15.171875 5.71875 -14.96875 5.125 -14.5625 C 4.53125 -14.164062 4.234375 -13.59375 4.234375 -12.84375 C 4.234375 -12.15625 4.441406 -11.597656 4.859375 -11.171875 C 5.285156 -10.753906 6.019531 -10.421875 7.0625 -10.171875 L 9.875 -9.484375 C 11.351562 -9.140625 12.414062 -8.5625 13.0625 -7.75 C 13.71875 -6.945312 14.046875 -5.9375 14.046875 -4.71875 C 14.046875 -3.71875 13.8125 -2.835938 13.34375 -2.078125 C 12.875 -1.328125 12.160156 -0.738281 11.203125 -0.3125 C 10.253906 0.113281 9.09375 0.328125 7.71875 0.328125 Z M 7.71875 0.328125 "/></g></g></g><g fill="#000000" fill-opacity="1"><g transform="translate(177.258172, 84.387192)"><g><path d="M 11.453125 -2.6875 L 12.25 -0.890625 C 11.851562 -0.492188 11.328125 -0.191406 10.671875 0.015625 C 10.023438 0.222656 9.320312 0.328125 8.5625 0.328125 C 5.332031 0.328125 3.71875 -1.3125 3.71875 -4.59375 L 3.71875 -14.890625 L 0.765625 -14.890625 L 0.765625 -16.953125 L 3.71875 -16.953125 L 3.71875 -20.53125 L 6.21875 -20.953125 L 6.21875 -16.953125 L 11.671875 -16.953125 L 11.671875 -14.890625 L 6.21875 -14.890625 L 6.21875 -4.84375 C 6.21875 -2.894531 7.0625 -1.921875 8.75 -1.921875 C 9.675781 -1.921875 10.472656 -2.175781 11.140625 -2.6875 Z M 11.453125 -2.6875 "/></g></g></g><g fill="#000000" fill-opacity="1"><g transform="translate(190.153256, 84.387192)"><g/></g></g><g fill="#000000" fill-opacity="1"><g transform="translate(197.859603, 84.387192)"><g><path d="M 6.03125 -10.578125 L 6.03125 -2.1875 L 17.484375 -2.1875 L 17.484375 0 L 3.390625 0 L 3.390625 -22.453125 L 17.234375 -22.453125 L 17.234375 -20.265625 L 6.03125 -20.265625 L 6.03125 -12.765625 L 15.90625 -12.765625 L 15.90625 -10.578125 Z M 6.03125 -10.578125 "/></g></g></g><g fill="#000000" fill-opacity="1"><g transform="translate(216.818452, 84.387192)"><g><path d="M 7.71875 0.328125 C 6.65625 0.328125 5.671875 0.1875 4.765625 -0.09375 C 3.859375 -0.375 3.09375 -0.757812 2.46875 -1.25 C 1.84375 -1.75 1.40625 -2.304688 1.15625 -2.921875 L 2.625 -4.453125 L 2.953125 -4.453125 C 3.503906 -3.609375 4.164062 -2.972656 4.9375 -2.546875 C 5.71875 -2.128906 6.644531 -1.921875 7.71875 -1.921875 C 8.96875 -1.921875 9.914062 -2.160156 10.5625 -2.640625 C 11.21875 -3.128906 11.546875 -3.8125 11.546875 -4.6875 C 11.546875 -5.351562 11.347656 -5.898438 10.953125 -6.328125 C 10.554688 -6.765625 9.921875 -7.09375 9.046875 -7.3125 L 6.1875 -8.015625 C 4.664062 -8.378906 3.550781 -8.960938 2.84375 -9.765625 C 2.144531 -10.566406 1.796875 -11.554688 1.796875 -12.734375 C 1.796875 -13.648438 2.03125 -14.445312 2.5 -15.125 C 2.96875 -15.8125 3.644531 -16.335938 4.53125 -16.703125 C 5.414062 -17.078125 6.46875 -17.265625 7.6875 -17.265625 C 9.25 -17.265625 10.476562 -17.046875 11.375 -16.609375 C 12.269531 -16.171875 12.96875 -15.566406 13.46875 -14.796875 L 12.0625 -13.40625 L 11.75 -13.40625 C 11.207031 -14.03125 10.613281 -14.476562 9.96875 -14.75 C 9.332031 -15.03125 8.570312 -15.171875 7.6875 -15.171875 C 6.570312 -15.171875 5.71875 -14.96875 5.125 -14.5625 C 4.53125 -14.164062 4.234375 -13.59375 4.234375 -12.84375 C 4.234375 -12.15625 4.441406 -11.597656 4.859375 -11.171875 C 5.285156 -10.753906 6.019531 -10.421875 7.0625 -10.171875 L 9.875 -9.484375 C 11.351562 -9.140625 12.414062 -8.5625 13.0625 -7.75 C 13.71875 -6.945312 14.046875 -5.9375 14.046875 -4.71875 C 14.046875 -3.71875 13.8125 -2.835938 13.34375 -2.078125 C 12.875 -1.328125 12.160156 -0.738281 11.203125 -0.3125 C 10.253906 0.113281 9.09375 0.328125 7.71875 0.328125 Z M 7.71875 0.328125 "/></g></g></g><g fill="#000000" fill-opacity="1"><g transform="translate(232.476768, 84.387192)"><g><path d="M 11.453125 -2.6875 L 12.25 -0.890625 C 11.851562 -0.492188 11.328125 -0.191406 10.671875 0.015625 C 10.023438 0.222656 9.320312 0.328125 8.5625 0.328125 C 5.332031 0.328125 3.71875 -1.3125 3.71875 -4.59375 L 3.71875 -14.890625 L 0.765625 -14.890625 L 0.765625 -16.953125 L 3.71875 -16.953125 L 3.71875 -20.53125 L 6.21875 -20.953125 L 6.21875 -16.953125 L 11.671875 -16.953125 L 11.671875 -14.890625 L 6.21875 -14.890625 L 6.21875 -4.84375 C 6.21875 -2.894531 7.0625 -1.921875 8.75 -1.921875 C 9.675781 -1.921875 10.472656 -2.175781 11.140625 -2.6875 Z M 11.453125 -2.6875 "/></g></g></g><g fill="#000000" fill-opacity="1"><g transform="translate(245.371852, 84.387192)"><g><path d="M 4.203125 -20.21875 C 3.671875 -20.21875 3.238281 -20.378906 2.90625 -20.703125 C 2.570312 -21.035156 2.40625 -21.460938 2.40625 -21.984375 C 2.40625 -22.492188 2.570312 -22.914062 2.90625 -23.25 C 3.238281 -23.582031 3.671875 -23.75 4.203125 -23.75 C 4.734375 -23.75 5.164062 -23.582031 5.5 -23.25 C 5.832031 -22.914062 6 -22.492188 6 -21.984375 C 6 -21.460938 5.832031 -21.035156 5.5 -20.703125 C 5.164062 -20.378906 4.734375 -20.21875 4.203125 -20.21875 Z M 2.953125 0 L 2.953125 -16.9375 L 5.453125 -16.9375 L 5.453125 0 Z M 2.953125 0 "/></g></g></g><g fill="#000000" fill-opacity="1"><g transform="translate(253.769013, 84.387192)"><g><path d="M 2.953125 0 L 2.953125 -16.9375 L 5.328125 -16.9375 L 5.328125 -14.4375 L 5.65625 -14.375 C 6.226562 -15.320312 6.921875 -16.039062 7.734375 -16.53125 C 8.546875 -17.019531 9.519531 -17.265625 10.65625 -17.265625 C 11.96875 -17.265625 12.984375 -17.015625 13.703125 -16.515625 C 14.421875 -16.015625 14.976562 -15.210938 15.375 -14.109375 L 15.703125 -14.109375 C 16.285156 -15.148438 17.003906 -15.9375 17.859375 -16.46875 C 18.710938 -17 19.765625 -17.265625 21.015625 -17.265625 C 22.753906 -17.265625 24.050781 -16.789062 24.90625 -15.84375 C 25.757812 -14.90625 26.1875 -13.472656 26.1875 -11.546875 L 26.1875 0 L 23.6875 0 L 23.6875 -11.484375 C 23.6875 -12.710938 23.425781 -13.617188 22.90625 -14.203125 C 22.382812 -14.785156 21.550781 -15.078125 20.40625 -15.078125 C 19.0625 -15.078125 17.957031 -14.582031 17.09375 -13.59375 C 16.238281 -12.613281 15.8125 -11 15.8125 -8.75 L 15.8125 0 L 13.3125 0 L 13.3125 -11.484375 C 13.3125 -12.710938 13.050781 -13.617188 12.53125 -14.203125 C 12.019531 -14.785156 11.191406 -15.078125 10.046875 -15.078125 C 8.691406 -15.078125 7.585938 -14.597656 6.734375 -13.640625 C 5.878906 -12.691406 5.453125 -11.148438 5.453125 -9.015625 L 5.453125 0 Z M 2.953125 0 "/></g></g></g><g fill="#000000" fill-opacity="1"><g transform="translate(282.629439, 84.387192)"><g><path d="M 6.984375 0.328125 C 5.316406 0.328125 4.015625 -0.101562 3.078125 -0.96875 C 2.140625 -1.84375 1.671875 -3.09375 1.671875 -4.71875 C 1.671875 -5.71875 1.878906 -6.5625 2.296875 -7.25 C 2.710938 -7.945312 3.351562 -8.507812 4.21875 -8.9375 C 5.09375 -9.375 6.234375 -9.710938 7.640625 -9.953125 C 8.859375 -10.160156 9.785156 -10.390625 10.421875 -10.640625 C 11.066406 -10.898438 11.5 -11.1875 11.71875 -11.5 C 11.945312 -11.820312 12.0625 -12.222656 12.0625 -12.703125 C 12.0625 -13.472656 11.796875 -14.0625 11.265625 -14.46875 C 10.734375 -14.875 9.882812 -15.078125 8.71875 -15.078125 C 7.625 -15.078125 6.6875 -14.863281 5.90625 -14.4375 C 5.125 -14.019531 4.40625 -13.390625 3.75 -12.546875 L 3.4375 -12.546875 L 2.21875 -14.28125 C 2.925781 -15.195312 3.832031 -15.921875 4.9375 -16.453125 C 6.050781 -16.992188 7.3125 -17.265625 8.71875 -17.265625 C 10.71875 -17.265625 12.191406 -16.828125 13.140625 -15.953125 C 14.085938 -15.078125 14.5625 -13.863281 14.5625 -12.3125 L 14.5625 -3.328125 C 14.5625 -2.390625 14.957031 -1.921875 15.75 -1.921875 C 16.019531 -1.921875 16.28125 -1.96875 16.53125 -2.0625 L 16.734375 -2 L 17.03125 -0.265625 C 16.84375 -0.140625 16.597656 -0.046875 16.296875 0.015625 C 15.992188 0.0859375 15.6875 0.125 15.375 0.125 C 14.4375 0.125 13.726562 -0.078125 13.25 -0.484375 C 12.78125 -0.898438 12.476562 -1.503906 12.34375 -2.296875 L 12.03125 -2.328125 C 11.539062 -1.441406 10.882812 -0.773438 10.0625 -0.328125 C 9.25 0.109375 8.222656 0.328125 6.984375 0.328125 Z M 7.546875 -1.671875 C 8.484375 -1.671875 9.296875 -1.890625 9.984375 -2.328125 C 10.679688 -2.765625 11.210938 -3.375 11.578125 -4.15625 C 11.941406 -4.945312 12.125 -5.859375 12.125 -6.890625 L 12.125 -9.046875 L 11.84375 -9.109375 C 11.457031 -8.835938 10.992188 -8.613281 10.453125 -8.4375 C 9.910156 -8.257812 9.15625 -8.097656 8.1875 -7.953125 C 7.207031 -7.816406 6.425781 -7.609375 5.84375 -7.328125 C 5.257812 -7.054688 4.84375 -6.707031 4.59375 -6.28125 C 4.351562 -5.863281 4.234375 -5.34375 4.234375 -4.71875 C 4.234375 -3.71875 4.523438 -2.957031 5.109375 -2.4375 C 5.691406 -1.925781 6.503906 -1.671875 7.546875 -1.671875 Z M 7.546875 -1.671875 "/></g></g></g><g fill="#000000" fill-opacity="1"><g transform="translate(300.145267, 84.387192)"><g><path d="M 11.453125 -2.6875 L 12.25 -0.890625 C 11.851562 -0.492188 11.328125 -0.191406 10.671875 0.015625 C 10.023438 0.222656 9.320312 0.328125 8.5625 0.328125 C 5.332031 0.328125 3.71875 -1.3125 3.71875 -4.59375 L 3.71875 -14.890625 L 0.765625 -14.890625 L 0.765625 -16.953125 L 3.71875 -16.953125 L 3.71875 -20.53125 L 6.21875 -20.953125 L 6.21875 -16.953125 L 11.671875 -16.953125 L 11.671875 -14.890625 L 6.21875 -14.890625 L 6.21875 -4.84375 C 6.21875 -2.894531 7.0625 -1.921875 8.75 -1.921875 C 9.675781 -1.921875 10.472656 -2.175781 11.140625 -2.6875 Z M 11.453125 -2.6875 "/></g></g></g><g fill="#000000" fill-opacity="1"><g transform="translate(313.040351, 84.387192)"><g><path d="M 16.140625 -7.890625 L 4.5 -7.890625 C 4.570312 -5.835938 5.066406 -4.328125 5.984375 -3.359375 C 6.898438 -2.398438 8.15625 -1.921875 9.75 -1.921875 C 10.957031 -1.921875 11.929688 -2.132812 12.671875 -2.5625 C 13.410156 -2.988281 13.988281 -3.664062 14.40625 -4.59375 L 14.734375 -4.59375 L 16.359375 -3.625 C 15.867188 -2.394531 15.082031 -1.425781 14 -0.71875 C 12.914062 -0.0195312 11.5 0.328125 9.75 0.328125 C 8.113281 0.328125 6.707031 0.00390625 5.53125 -0.640625 C 4.351562 -1.285156 3.445312 -2.265625 2.8125 -3.578125 C 2.175781 -4.890625 1.859375 -6.519531 1.859375 -8.46875 C 1.859375 -10.382812 2.191406 -12.003906 2.859375 -13.328125 C 3.535156 -14.648438 4.453125 -15.632812 5.609375 -16.28125 C 6.773438 -16.9375 8.101562 -17.265625 9.59375 -17.265625 C 11.769531 -17.265625 13.46875 -16.648438 14.6875 -15.421875 C 15.90625 -14.203125 16.519531 -12.390625 16.53125 -9.984375 C 16.53125 -9.035156 16.507812 -8.398438 16.46875 -8.078125 Z M 14.046875 -9.984375 C 14.003906 -11.785156 13.601562 -13.09375 12.84375 -13.90625 C 12.09375 -14.726562 11.007812 -15.140625 9.59375 -15.140625 C 8.113281 -15.140625 6.953125 -14.726562 6.109375 -13.90625 C 5.265625 -13.082031 4.75 -11.773438 4.5625 -9.984375 Z M 14.046875 -9.984375 "/></g></g></g></svg>